<svg height="100" viewBox="0 0 100 100" width="100" xmlns="http://www.w3.org/2000/svg"><g fill="none" fill-rule="evenodd"><circle cx="50" cy="50" fill="#3c9ff0" r="50"/><g fill="#fff"><path d="m 48.11 60.88 l 0.66 5.47 c 0.26 2.25 -1.2 4.3 -3.27 4.58 c -0.07 0.01 -0.14 0.02 -0.22 0.02 l -0.4 0.03 c -2.14 0.16 -4.15 -1.17 -5.01 -3.32 l -3.14 -6.22 c -0.25 -0.49 -0.05 -1.09 0.44 -1.34 c 0.14 -0.07 0.29 -0.11 0.45 -0.11 h 9.49 c 0.51 0 0.93 0.38 0.99 0.88 z"/><path d="m 36.5 40 h 14.5 c 0.55 0 1 0.45 1 1 v 15 c 0 0.55 -0.45 1 -1 1 h -14.5 c -4.69 0 -8.5 -3.81 -8.5 -8.5 s 3.81 -8.5 8.5 -8.5 z"/><path d="m 57.53 38.31 l 7.8 -5.2 c 1.38 -0.92 3.24 -0.55 4.16 0.83 c 0.33 0.49 0.5 1.07 0.5 1.66 v 25.79 c 0 1.66 -1.34 3 -3 3 c -0.59 0 -1.17 -0.18 -1.66 -0.5 l -7.8 -5.2 c -1.58 -1.05 -2.53 -2.83 -2.53 -4.73 v -10.91 c 0 -1.9 0.95 -3.68 2.53 -4.73 z"/></g></g></svg>