<svg xmlns="http://www.w3.org/2000/svg" viewBox="0 0 24 22">
    <g fill="#2c9ee5" fill-rule="evenodd">
        <path d="m11.68 15.58.31 2.6c.12.96-.57 1.83-1.54 1.94-.03.01-.06.01-.1.01l-.19.02c-1 .06-1.94-.5-2.34-1.41l-1.46-2.88c-.12-.24-.03-.53.21-.66.07-.03.15-.05.22-.05h4.41c.24 0 .45.19.48.43z"/>
        <path d="m6 5.95h6.21c.27 0 .49.22.49.49v7.02c0 .27-.22.49-.49.49h-6.21c-2.21 0-4-1.79-4-4s1.79-4 4-4z"/>
        <path d="m15.36 5.35 3.43-2.04c.7-.41 1.59-.18 2.01.51.13.23.2.49.2.75v10.86c0 .81-.66 1.46-1.46 1.46-.27 0-.52-.07-.75-.2l-3.43-2.03c-.84-.5-1.36-1.41-1.36-2.39v-4.54c0-.98.52-1.89 1.36-2.38z"/>
    </g>
</svg>
